<svg xmlns="http://www.w3.org/2000/svg" viewBox="-20 -30 300 300"><defs><style>.cls-1{fill:#b01f24;}</style></defs><path class="cls-1" d="M159.41,215.54a13.4,13.4,0,0,0,6.14,3.25s28.8-22.34,35.71-27.22,25.89-7.36,38.79-18.28c3.84-3.25,3.07-8.12,1.53-11.37s-5.37-4.06-18.43-2.44S151,207.82,152.5,209.85,157.1,213.1,159.41,215.54Z" transform="translate(-130 -130)"/><path class="cls-1" d="M186.29,235c-3.84,0-32.64,24-32.64,24s8.06,9.34,11.9,10.15,23-13,33-20.31,20.36-12.59,36.87-21.12c19.17-9.91,12.67-13.81,10-18.69-1.59-2.89-6.14-4.06-10-4.06S190.13,235,186.29,235Z" transform="translate(-130 -130)"/><path class="cls-1" d="M239.28,258.6c-3.84,0-45.31,28.44-50.69,33.31s-32.25,18.69-33.79,21.94c0,0,.73,6.79,5.38,7.31,12.58,1.42,15.79-.67,24.62-5.53,9.25-5.09,17.36-11.49,25.92-15.74s36.24-16.1,37.77-26.66-.76-15.44-5.37-14.63S243.12,258.6,239.28,258.6Z" transform="translate(-130 -130)"/><path class="cls-1" d="M360.62,130.23c-4.61-1.62-25.34,5.69-35.33,9.75s-38.4,26-43.77,39c-7.72,18.67-8,100.59-18.75,125-4.65,10.54-27.55,32.53-47.3,39-32.25,10.56-67.13,8.12-73.27,5.68-4.31-1.71-12.29,12.19-11.52,8.94,0,0-3.07,9.75,3.84,10.56s45.31,3.25,59.9.81c16.57-2.76,56.83-11.37,79.87-45.49,9.57-14.18,14-31.73,16.51-49.83,11.57-2.07,28.17-5.32,33.95-7.87,9.22-4.06,39.3-29.51,35.33-62.56-2.74-22.74-15.59-27.91-16.65-42.9,9.69-3.89,18.84-7.88,24.87-13.81C373.6,141.26,365.23,131.86,360.62,130.23ZM317.84,241.37c-11.3,5.54-19.36,5.09-24.36,3.53,1.44-21.48,2.33-41.57,8-55.36A31.24,31.24,0,0,1,304,184.7a64.27,64.27,0,0,1,12.83-6.13c9.22-3.25,18.46,12.39,20.58,23C340.11,215,333.76,233.58,317.84,241.37Z" transform="translate(-130 -130)"/></svg>
